Coordinates
version=1
nRows=26
nColumns=22
inDegrees=yes

Units are S.I. units (second, meters, Newtons, ...)
If the header above contains a line with 'inDegrees', this indicates whether rotational values are in degrees (yes) or radians (no).

endheader
time	pelvis_tilt	pelvis_list	pelvis_rotation	pelvis_tx	pelvis_ty	pelvis_tz	hip_flexion_r	hip_adduction_r	hip_rotation_r	knee_angle_r	ankle_angle_r	subtalar_angle_r	hip_flexion_l	hip_adduction_l	hip_rotation_l	knee_angle_l	ankle_angle_l	subtalar_angle_l	lumbar_extension	lumbar_bending	lumbar_rotation
      2.61000000	     -5.51843912	      0.36755495	    -42.45938433	     -0.33014948	      0.87315488	      0.04545699	     -3.04003091	      6.12809337	      5.86294011	     -8.44253210	     19.50743011	     -5.61041103	     32.23414392	    -11.97187140	     -4.82788349	    -33.36869070	     11.05421805	      3.59686178	     -4.69464344	      3.94060711	     23.29658403
      2.62000000	     -5.76561538	      0.17612580	    -43.02012011	     -0.32278459	      0.87123648	      0.05159001	     -3.86124818	      6.32461444	      6.28289072	     -8.12826527	     19.87169747	     -5.52045773	     32.30984859	    -12.44963825	     -4.26290957	    -29.74550873	     10.74684765	      3.30001539	     -4.59851683	      4.21543540	     23.72405687
      2.63000000	     -6.05299440	     -0.00623160	    -43.58779567	     -0.31535796	      0.86911660	      0.05777384	     -4.60890414	      6.53418796	      6.68866570	     -7.90686611	     20.26960568	     -5.43197144	     32.42080295	    -12.99216109	     -3.82751438	    -26.23601268	     10.50640539	      3.09592726	     -4.46773966	      4.51055304	     24.15295772
      2.64000000	     -6.37314032	     -0.16357215	    -44.15974229	     -0.30784754	      0.86681982	      0.06397972	     -5.28407591	      6.73696478	      7.07614665	     -7.76443732	     20.69063108	     -5.34317333	     32.59293300	    -13.56901491	     -3.55676292	    -22.90055640	     10.32286770	      3.04253812	     -4.29740542	      4.81378688	     24.58771006
      2.65000000	     -6.69089124	     -0.29756457	    -44.72870693	     -0.30022450	      0.86441778	      0.07018953	     -5.91728843	      6.90764545	      7.45482155	     -7.69984060	     21.13469388	     -5.24117290	     32.80129534	    -14.13766245	     -3.46587591	    -19.77630259	     10.20280587	      3.19744054	     -4.11665752	      5.09964177	     24.99103902
      2.66000000	     -7.01727726	     -0.38887454	    -45.30004478	     -0.29248523	      0.86190998	      0.07637102	     -6.49187376	      7.03481447	      7.82792769	     -7.69154536	     21.57447070	     -5.13395522	     33.08239850	    -14.68020259	     -3.54801778	    -16.92073287	     10.08255989	      3.58280111	     -3.90276996	      5.36591407	     25.40866647
      2.67000000	     -7.31889336	     -0.45293094	    -45.86214617	     -0.28460142	      0.85936355	      0.08249567	     -7.04091413	      7.10414392	      8.21218972	     -7.74849588	     22.01900626	     -5.00164726	     33.39454206	    -15.16720124	     -3.76467642	    -14.35982716	      9.96595507	      4.30748943	     -3.69808808	      5.60234505	     25.78413147
      2.68000000	     -7.61220702	     -0.51952088	    -46.37576307	     -0.27654257	      0.85679474	      0.08848738	     -7.57337355	      7.15216485	      8.56114120	     -7.86197176	     22.46915227	     -4.84824598	     33.76073701	    -15.60058415	     -3.99640886	    -12.15497435	      9.77451711	      5.26607014	     -3.51492701	      5.84917127	     26.08576128
      2.69000000	     -7.86921186	     -0.53362840	    -46.92980633	     -0.26838804	      0.85423732	      0.09447121	     -8.06216313	      7.10654827	      8.98355695	     -8.04249939	     22.87326747	     -4.69268734	     34.15300568	    -15.97888539	     -4.35801718	    -10.33794848	      9.58026800	      6.08480653	     -3.33214920	      6.03031272	     26.44129060
      2.70000000	     -8.08740931	     -0.59433461	    -47.41331280	     -0.26003255	      0.85176105	      0.10033199	     -8.59706107	      7.04976312	      9.35474679	     -8.26319061	     23.26956903	     -4.48192944	     34.55603759	    -16.30823624	     -4.63551801	     -8.96695620	      9.32089291	      7.06741558	     -3.23152839	      6.22521724	     26.68740803
      2.71000000	     -8.25527655	     -0.62474844	    -47.92969811	     -0.25156526	      0.84936379	      0.10620922	     -9.12033510	      6.90557980	      9.80771673	     -8.53795022	     23.61668258	     -4.28201802	     34.97842964	    -16.59529775	     -4.98563471	     -8.09109774	      9.13840215	      7.69334322	     -3.15910577	      6.35425320	     26.97870885
      2.72000000	     -8.37149565	     -0.69486190	    -48.40943097	     -0.24291482	      0.84711742	      0.11204415	     -9.69500715	      6.73205614	     10.23264805	     -8.84777355	     23.89540210	     -4.03848388	     35.39589186	    -16.85055011	     -5.27541264	     -7.72313580	      8.95425982	      8.21920026	     -3.17190304	      6.47164810	     27.21068585
      2.73000000	     -8.44110063	     -0.77190424	    -48.88100619	     -0.23407266	      0.84501036	      0.11791449	    -10.29920166	      6.50669516	     10.66049196	     -9.18403365	     24.09171755	     -3.78169869	     35.78501304	    -17.07224797	     -5.47577669	     -7.80587692	      8.84922274	      8.48516071	     -3.22910459	      6.54902599	     27.43592722
      2.74000000	     -8.47191814	     -0.86717585	    -49.34251368	     -0.22502643	      0.84304639	      0.12380891	    -10.93878218	      6.24438447	     11.10081447	     -9.54267734	     24.23774383	     -3.59081451	     36.14537057	    -17.26982326	     -5.55517856	     -8.32831084	      8.85452156	      8.48768187	     -3.33672778	      6.60392055	     27.64314765
      2.75000000	     -8.45974773	     -0.93965350	    -49.81604505	     -0.21576604	      0.84125495	      0.12979624	    -11.60872937	      5.90233903	     11.55420568	     -9.86997996	     24.24334825	     -3.18066266	     36.44497048	    -17.42205856	     -5.58263182	     -9.18019741	      8.82470584	      8.29899477	     -3.45147065	      6.59574038	     27.87021502
      2.76000000	     -8.43525309	     -1.00073217	    -50.26748760	     -0.20624333	      0.83957986	      0.13581839	    -12.28101132	      5.52291641	     11.97621264	    -10.19670365	     24.16543326	     -2.80627231	     36.70540020	    -17.52461504	     -5.47107973	    -10.30734017	      8.84091709	      7.90746355	     -3.55866933	      6.56556292	     28.06609495
      2.77000000	     -8.40408428	     -1.02290952	    -50.70857218	     -0.19646105	      0.83802103	      0.14189138	    -12.93177696	      5.08880066	     12.37971020	    -10.51334688	     23.97514352	     -2.39125244	     36.91446358	    -17.56232446	     -5.26308889	    -11.60584875	      8.81527933	      7.40310897	     -3.62667435	      6.49784058	     28.24564140
      2.78000000	     -8.36986808	     -0.97947289	    -51.12385934	     -0.18638266	      0.83655066	      0.14799784	    -13.53216608	      4.58651759	     12.72749700	    -10.82314283	     23.67961251	     -1.90365005	     37.09130011	    -17.50507646	     -4.99146756	    -13.01271550	      8.71496566	      6.86568435	     -3.62318653	      6.37876652	     28.38758259
      2.79000000	     -8.36671616	     -0.89986562	    -51.54897559	     -0.17612096	      0.83520679	      0.15415434	    -14.08429992	      4.06330254	     13.13922753	    -11.11291100	     23.24968407	     -1.41393454	     37.23626059	    -17.41987654	     -4.68557172	    -14.47070698	      8.45910571	      6.44193384	     -3.56041915	      6.25653610	     28.55355140
      2.80000000	     -8.36309604	     -0.73136130	    -51.94047745	     -0.16557778	      0.83395900	      0.16031792	    -14.54575803	      3.46633649	     13.52401851	    -11.42086736	     22.69383409	     -0.78245289	     37.38415138	    -17.22672955	     -4.38655492	    -15.95145704	      8.04928530	      6.05229690	     -3.40429957	      6.07389301	     28.63740204
      2.81000000	     -8.36932928	     -0.49668758	    -52.31535228	     -0.15482140	      0.83283582	      0.16649869	    -14.92873264	      2.82130454	     13.93183872	    -11.73549476	     22.01713014	     -0.07510291	     37.54743489	    -16.96867130	     -4.10205431	    -17.44050678	      7.44982949	      5.79467652	     -3.17270944	      5.85123085	     28.71628970
      2.82000000	     -8.35941994	     -0.20149665	    -52.66172324	     -0.14385433	      0.83187754	      0.17269831	    -15.22521057	      2.12564164	     14.35390116	    -12.11419507	     21.20481295	      0.71993245	     37.72836597	    -16.63618045	     -3.87084954	    -18.93720186	      6.68823833	      5.66725133	     -2.89054639	      5.57238530	     28.70995479
      2.83000000	     -8.33151797	      0.13516770	    -52.98572649	     -0.13270460	      0.83110536	      0.17893265	    -15.45682534	      1.39250672	     14.81119596	    -12.54038396	     20.26178833	      1.58235754	     37.94115370	    -16.25545083	     -3.68912612	    -20.46169329	      5.81627094	      5.65347451	     -2.57570551	      5.24528011	     28.69212387
      2.84000000	     -8.25771084	      0.50135755	    -53.27511218	     -0.12139143	      0.83056808	      0.18522309	    -15.62267746	      0.62808756	     15.30974431	    -13.07503997	     19.18424470	      2.49813741	     38.16706371	    -15.81759144	     -3.57795488	    -22.01849175	      4.93036020	      5.70813064	     -2.25998061	      4.85318580	     28.57399491
      2.85000000	     -8.11980922	      0.86842131	    -53.51759907	     -0.10989453	      0.83030520	      0.19158583	    -15.74853676	     -0.15650531	     15.74786259	    -13.72959314	     17.94217101	      3.46491186	     38.38401651	    -15.31986147	     -3.51094149	    -23.63952420	      4.14637375	      5.76288192	     -1.97604543	      4.39464984	     28.42501979
      2.86000000	     -7.90968714	      1.23089623	    -53.70809497	     -0.09824642	      0.83033717	      0.19805605	    -15.82606626	     -0.94507406	     16.15323678	    -14.54607404	     16.53352149	      4.47476046	     38.55453101	    -14.75560227	     -3.48390757	    -25.28982970	      3.55943167	      5.75199205	     -1.73273179	      3.86541370	     28.19524236
